# xmcd
#
# Track frame offsets:
#	150
#	11248
#	22638
#	33445
#	44390
#	56285
#	70355
#	82073
#	94345
#	105708
#	118313
#	128995
#	143285
#	155270
#	165488
#	177123
#	190738
#	202880
#	216168
#	227250
#	239945
#	252588
#	264443
#	275883
#
# Disc length: 3813 seconds
#
# Revision: 8
# Processed by: cddbd v1.5.2PL0 Copyright (c) Steve Scherf et al.
# Submitted via: dBpowerAMP V4.0
#
DISCID=520ee318
DTITLE=Various Artist - Country USA - 1953
DYEAR=1953
DGENRE=Country
TTITLE0=The Carlisles - No Help Wanted
TTITLE1=Carl Smith - Hey, Joe!
TTITLE2=Eddy Arnold - Eddy's Song
TTITLE3=Webb Pierce - There Stands The Glass
TTITLE4=Kitty Wells - Paying For That Back Street Affair
TTITLE5=Hank Thompson - Yesterday's Girl
TTITLE6=Goldie Hill - I Let The Stars Get In My Eyes
TTITLE7=Hank Williams - Your Cheatin' Heart
TTITLE8=Hank Snow - (Now And Then There's) A Fool Such As I
TTITLE9=Marty Robbins - I Couldn't Keep From Crying
TTITLE10=Webb Pierce - It's Been So Long
TTITLE11=Rex Allen - Crying In The Chapel
TTITLE12=Jim Reeves - Mexican Joe
TTITLE13=Hank Thompson - Rub-A-Dub-Dub
TTITLE14=Hank Williams - Kaw-Liga
TTITLE15=The Davis Sisters - I Forgot More Than You'll Ever Know
TTITLE16=Marty Robbins - I'll Go On Alone
TTITLE17=Red Foley - Shake A Hand
TTITLE18=Webb Pierce - I'm Walking The Dog
TTITLE19=Homer and Jethro - (How Much Is) That Hound Dog In The Window
TTITLE20=Jim Reeves - Bimbo
TTITLE21=Hank Williams - Take These Chains From My Heart
TTITLE22=Jean Shepard and Ferlin Husky - A Dear John Letter
TTITLE23=Hank Thompson - Wake Up, Irene
EXTD=
EXTT0=
EXTT1=
EXTT2=
EXTT3=
EXTT4=
EXTT5=
EXTT6=
EXTT7=
EXTT8=
EXTT9=
EXTT10=
EXTT11=
EXTT12=
EXTT13=
EXTT14=
EXTT15=
EXTT16=
EXTT17=
EXTT18=
EXTT19=
EXTT20=
EXTT21=
EXTT22=
EXTT23=
PLAYORDER=
